Run_50002
nRows=4
nColumns=164

# SIMM Motion File Header:
name Run_50002
datacolumns 164
datarows 4
otherdata 1
range 3.11000000 3.14000000
endheader
time	pelvis_tilt	pelvis_list	pelvis_rotation	pelvis_tx	pelvis_ty	pelvis_tz	hip_flexion_r	hip_adduction_r	hip_rotation_r	knee_angle_r	ankle_angle_r	hip_flexion_l	hip_adduction_l	hip_rotation_l	knee_angle_l	ankle_angle_l	lumbar_extension	lumbar_bending	lumbar_rotation	arm_flex_r	arm_add_r	arm_rot_r	elbow_flex_r	pro_sup_r	arm_flex_l	arm_add_l	arm_rot_l	elbow_flex_l	pro_sup_l	subtalar_angle_r	mtp_angle_r	subtalar_angle_l	mtp_angle_l	wrist_flex_r	wrist_dev_r	wrist_flex_l	wrist_dev_l	LASI_tx	LASI_ty	LASI_tz	RASI_tx	RASI_ty	RASI_tz	LPSI_tx	LPSI_ty	LPSI_tz	RPSI_tx	RPSI_ty	RPSI_tz	RTH1_tx	RTH1_ty	RTH1_tz	RTH2_tx	RTH2_ty	RTH2_tz	RTH3_tx	RTH3_ty	RTH3_tz	LTH1_tx	LTH1_ty	LTH1_tz	LTH2_tx	LTH2_ty	LTH2_tz	LTH3_tx	LTH3_ty	LTH3_tz	RTB1_tx	RTB1_ty	RTB1_tz	RTB2_tx	RTB2_ty	RTB2_tz	RTB3_tx	RTB3_ty	RTB3_tz	LTB1_tx	LTB1_ty	LTB1_tz	LTB2_tx	LTB2_ty	LTB2_tz	LTB3_tx	LTB3_ty	LTB3_tz	RCAL_tx	RCAL_ty	RCAL_tz	RTOE_tx	RTOE_ty	RTOE_tz	RMT5_tx	RMT5_ty	RMT5_tz	LCAL_tx	LCAL_ty	LCAL_tz	LTOE_tx	LTOE_ty	LTOE_tz	LMT5_tx	LMT5_ty	LMT5_tz	LACR_tx	LACR_ty	LACR_tz	RACR_tx	RACR_ty	RACR_tz	CLAV_tx	CLAV_ty	CLAV_tz	C7_tx	C7_ty	C7_tz	RUA1_tx	RUA1_ty	RUA1_tz	RUA2_tx	RUA2_ty	RUA2_tz	RUA3_tx	RUA3_ty	RUA3_tz	RLEL_tx	RLEL_ty	RLEL_tz	RMEL_tx	RMEL_ty	RMEL_tz	LUA1_tx	LUA1_ty	LUA1_tz	LUA2_tx	LUA2_ty	LUA2_tz	LUA3_tx	LUA3_ty	LUA3_tz	LLEL_tx	LLEL_ty	LLEL_tz	LMEL_tx	LMEL_ty	LMEL_tz	RFAsuperior_tx	RFAsuperior_ty	RFAsuperior_tz	RFAradius_tx	RFAradius_ty	RFAradius_tz	RFAulna_tx	RFAulna_ty	RFAulna_tz	LFAsuperior_tx	LFAsuperior_ty	LFAsuperior_tz	LFAradius_tx	LFAradius_ty	LFAradius_tz	LFAulna_tx	LFAulna_ty	LFAulna_tz
      3.11000000	    -13.31634623	     -4.76441394	     -8.67492669	      0.99657426	      0.98041384	     -0.33237524	     37.60198447	     11.30187097	     -2.80922315	    -34.65567789	      7.84283480	     20.89999314	     -3.86233015	     -4.76593393	   -110.58229945	     -1.89151637	      2.36962588	      9.42597411	      3.94863887	    -44.22154824	    -22.93755755	    -14.62699273	    113.80689171	     94.34161676	    -34.67718114	    -16.16191630	     -5.29804223	    118.76503067	    104.22639772	      0.00000000	      0.00000000	      0.00000000	      0.00000000	      0.00000000	      0.00000000	      0.00000000	      0.00000000	      1.03459163	      1.00777547	     -0.46306476	      0.99668899	      1.03112336	     -0.22028990	      0.86613582	      1.07513071	     -0.41987438	      0.84793605	      1.07712569	     -0.30761640	      0.92602198	      0.91293408	     -0.16320874	      0.92747778	      0.75909345	     -0.19129443	      1.02703425	      0.63088192	     -0.19142964	      0.97777401	      0.87355231	     -0.50520732	      0.90377464	      0.72293312	     -0.46782839	      0.96038642	      0.59049813	     -0.46910991	      1.12093323	      0.39207993	     -0.26925787	      1.03348554	      0.34920383	     -0.20871799	      1.06872800	      0.21071377	     -0.30192436	      0.87090135	      0.43826410	     -0.41215992	      0.77604510	      0.54117627	     -0.45962796	      0.65924213	      0.49599291	     -0.41614715	      0.92710559	      0.09855144	     -0.31431811	      1.17020657	      0.07341442	     -0.33760566	      1.12027511	      0.04895583	     -0.24175137	      0.55563626	      0.63892048	     -0.38474153	      0.47807606	      0.41541673	     -0.40700681	      0.46360063	      0.47975450	     -0.49779219	      0.98894309	      1.52134313	     -0.48575176	      0.99130710	      1.48791756	     -0.16615806	      1.05193173	      1.46185925	     -0.29318629	      0.92656368	      1.52816917	     -0.33284229	      0.85681939	      1.42779475	     -0.11415538	      0.88268697	      1.36160193	     -0.07363913	      0.78945873	      1.31805392	     -0.04084709	      0.73870420	      1.26987566	     -0.01906884	      0.74075703	      1.24115426	     -0.10512079	      0.88915774	      1.43578116	     -0.54818804	      0.91756029	      1.36605632	     -0.58767501	      0.84363679	      1.31349793	     -0.62580730	      0.82457168	      1.25057417	     -0.65362002	      0.79415663	      1.22402454	     -0.57257415	      0.81870461	      1.19528437	     -0.01457915	      0.97320191	      1.14018885	     -0.09297806	      0.93586823	      1.08992350	     -0.06449860	      0.88756525	      1.19326486	     -0.64053638	      1.03866986	      1.17992875	     -0.52334342	      1.03342811	      1.11843945	     -0.56239951
      3.12000000	    -13.88876878	     -4.93098232	     -9.16071953	      0.99023643	      0.97268367	     -0.33142652	     38.00067499	     12.18148155	     -1.76606176	    -39.60047493	     12.56244921	     26.10481861	     -5.05055058	     -4.51459744	   -115.10954304	     -0.28878918	      2.10835869	      9.84437991	      6.04690912	    -41.19251170	    -23.37038322	    -13.61936261	    112.43377516	     94.67713974	    -34.37290043	    -16.55722342	     -4.50589899	    114.54013059	    106.33445766	      0.00000000	      0.00000000	      0.00000000	      0.00000000	      0.00000000	      0.00000000	      0.00000000	      0.00000000	      1.02812997	      0.99974832	     -0.46052534	      0.99179845	      1.02402341	     -0.21690918	      0.85960132	      1.07003177	     -0.42007643	      0.84289824	      1.07195259	     -0.30791351	      0.91987037	      0.90785522	     -0.16234894	      0.92080080	      0.75392477	     -0.19309217	      1.01902877	      0.62376630	     -0.19575115	      0.97625862	      0.86754333	     -0.50416464	      0.91498229	      0.71296986	     -0.47084763	      0.98109442	      0.58543565	     -0.47126315	      1.10096767	      0.38494043	     -0.27665755	      1.01131126	      0.34894755	     -0.21338230	      1.03225580	      0.20795065	     -0.30702657	      0.90091330	      0.43562858	     -0.41400920	      0.80587501	      0.53760997	     -0.46372878	      0.68981695	      0.49331858	     -0.41779997	      0.87983156	      0.10056810	     -0.31737441	      1.12296235	      0.07330866	     -0.33950226	      1.07230567	      0.04955794	     -0.24423722	      0.58290730	      0.63672476	     -0.38780238	      0.51220416	      0.41061874	     -0.40732792	      0.49711247	      0.47302761	     -0.49945600	      0.98553773	      1.51480955	     -0.48583416	      0.99394219	      1.47901576	     -0.16460275	      1.05273392	      1.45393957	     -0.29356825	      0.92661794	      1.52183191	     -0.32994425	      0.86482930	      1.41192950	     -0.10659234	      0.89263864	      1.34544498	     -0.07054276	      0.80260661	      1.29800723	     -0.03446613	      0.75353333	      1.25012973	     -0.01069497	      0.75336538	      1.22194913	     -0.09666879	      0.88350854	      1.42947572	     -0.54530291	      0.91010629	      1.35979790	     -0.58682908	      0.83507319	      1.30797228	     -0.62312297	      0.81443592	      1.24606554	     -0.65162695	      0.78558643	      1.21978554	     -0.57059452	      0.83459198	      1.17594722	     -0.00927270	      0.98772363	      1.12511315	     -0.09402856	      0.95269707	      1.07424701	     -0.06401272	      0.87388567	      1.18316491	     -0.64175214	      1.02595934	      1.15434813	     -0.52726615	      1.01638444	      1.09631068	     -0.57005830
      3.13000000	    -14.20823256	     -4.75238932	     -9.53349431	      0.98465138	      0.96682676	     -0.33086898	     37.25178806	     12.62558003	     -0.12177273	    -42.85201686	     16.11870351	     31.17729934	     -5.74391536	     -4.19824781	   -118.41712389	      1.10826411	      1.69705314	      9.81391603	      7.92789611	    -37.62784957	    -23.91907535	    -12.25938782	    110.61304441	     95.08881733	    -34.21347853	    -16.77520392	     -3.90650469	    110.17464416	    109.35242031	      0.00000000	      0.00000000	      0.00000000	      0.00000000	      0.00000000	      0.00000000	      0.00000000	      0.00000000	      1.02232106	      0.99461446	     -0.45983240	      0.98704165	      1.01840782	     -0.21263110	      0.85433962	      1.06628218	     -0.41970949	      0.83819125	      1.06794976	     -0.30783515	      0.91404962	      0.90379656	     -0.16158802	      0.91298617	      0.74950785	     -0.19628177	      1.00793069	      0.61671771	     -0.20049630	      0.97490762	      0.86445602	     -0.50454625	      0.92669302	      0.70715160	     -0.47341390	      1.00280385	      0.58487086	     -0.47320594	      1.07734871	      0.37676518	     -0.28210042	      0.98748297	      0.34618631	     -0.21630947	      0.99431992	      0.20420875	     -0.30897284	      0.93297674	      0.43570226	     -0.41517822	      0.83537686	      0.53423322	     -0.46758822	      0.72098724	      0.48880080	     -0.41884956	      0.83440010	      0.10243971	     -0.31730477	      1.07705612	      0.07246552	     -0.34007109	      1.02607736	      0.04865991	     -0.24530876	      0.60784980	      0.63028522	     -0.39141376	      0.54832858	      0.40073114	     -0.40755750	      0.53143578	      0.46067948	     -0.50106589	      0.98272030	      1.50949615	     -0.48607850	      0.99580906	      1.47169597	     -0.16350773	      1.05300319	      1.44764428	     -0.29416175	      0.92703443	      1.51764444	     -0.32791226	      0.87438033	      1.39670186	     -0.10015426	      0.90315267	      1.33048789	     -0.06833378	      0.81696890	      1.27851918	     -0.02860561	      0.77039719	      1.23042853	     -0.00259478	      0.76789512	      1.20253506	     -0.08847455	      0.87858305	      1.42485560	     -0.54294918	      0.90305074	      1.35486975	     -0.58573600	      0.82652685	      1.30402963	     -0.61981488	      0.80423896	      1.24306637	     -0.64887557	      0.77693927	      1.21688843	     -0.56777896	      0.85280132	      1.15695314	     -0.00469730	      1.00407382	      1.11051258	     -0.09595148	      0.97130551	      1.05926377	     -0.06436555	      0.85981687	      1.17527312	     -0.64229800	      1.01088768	      1.12976904	     -0.53104928	      0.99743699	      1.07635556	     -0.57792381
      3.14000000	    -14.37409752	     -4.45030551	     -9.54621242	      0.98032282	      0.96277377	     -0.33105100	     35.43148076	     12.60682766	      1.47930885	    -44.46814745	     19.21872799	     36.13040457	     -6.01100697	     -3.62526258	   -120.52660757	      2.55572107	      1.34866227	      9.56516714	      9.27242915	    -33.73234027	    -24.56139676	    -10.68563084	    108.65160758	     95.81121839	    -34.41217120	    -16.82863542	     -3.55922750	    106.03392919	    112.61222630	      0.00000000	      0.00000000	      0.00000000	      0.00000000	      0.00000000	      0.00000000	      0.00000000	      0.00000000	      1.01741012	      0.99162761	     -0.46010313	      0.98342484	      1.01424766	     -0.21000624	      0.85041239	      1.06355588	     -0.41848064	      0.83449660	      1.06525304	     -0.30712331	      0.90965460	      0.90039351	     -0.16172405	      0.90374899	      0.74607965	     -0.19893850	      0.99390436	      0.60986311	     -0.20394427	      0.97330149	      0.86429861	     -0.50656382	      0.93858255	      0.70546624	     -0.47549559	      1.02497178	      0.58908394	     -0.47491531	      1.04980521	      0.36734811	     -0.28642121	      0.96101868	      0.34075083	     -0.21855451	      0.95446414	      0.19931750	     -0.30980399	      0.96625724	      0.43873889	     -0.41552481	      0.86410676	      0.53119941	     -0.47066446	      0.75210532	      0.48286997	     -0.41940629	      0.78978362	      0.10357924	     -0.31621140	      1.03192212	      0.07130355	     -0.34004601	      0.98089289	      0.04785351	     -0.24512402	      0.63004711	      0.61971028	     -0.39513626	      0.58682506	      0.38643982	     -0.40778025	      0.56696851	      0.44337358	     -0.50247464	      0.98035250	      1.50526160	     -0.48624718	      0.99721512	      1.46607084	     -0.16294645	      1.05278620	      1.44306090	     -0.29498626	      0.92712718	      1.51486044	     -0.32697456	      0.88379804	      1.38339857	     -0.09607278	      0.91388022	      1.31825041	     -0.06706103	      0.83224086	      1.26130655	     -0.02348723	      0.78940841	      1.21185645	      0.00469768	      0.78421407	      1.18381893	     -0.08097424	      0.87418405	      1.42213921	     -0.54119277	      0.89640045	      1.35137288	     -0.58434243	      0.81793920	      1.30228276	     -0.61615867	      0.79378858	      1.24228717	     -0.64581396	      0.76758611	      1.21604502	     -0.56434797	      0.87397052	      1.14042702	     -0.00148377	      1.02229667	      1.09798484	     -0.09913196	      0.99186008	      1.04640197	     -0.06575939	      0.84553859	      1.17059685	     -0.64225667	      0.99374103	      1.10824373	     -0.53492694	      0.97675457	      1.05992658	     -0.58562280
